<svg width="70" height="70" viewBox="0 0 70 70" fill="none" xmlns="http://www.w3.org/2000/svg">
<path d="M59.2308 0H10.7692C9.65412 0 8.75 0.904121 8.75 2.0192V40.5759C8.75 47.8618 12.3259 54.688 18.3159 58.8362L33.9177 69.6408C34.2635 69.8804 34.6656 70 35.0674 70C35.471 70 35.8747 69.8793 36.2213 69.6378L51.7316 58.8366C57.6918 54.6861 61.25 47.8723 61.25 40.6093V2.0192C61.25 0.904121 60.3459 0 59.2308 0ZM57.2116 40.6093C57.2116 46.5516 54.3003 52.1268 49.4237 55.5226L35.0641 65.5223L20.615 55.516C15.7142 52.1221 12.7884 46.537 12.7884 40.5758V4.0384H57.2115V40.6093H57.2116Z" fill="#252525"/>
<path d="M51.154 8.07666H18.8462C17.731 8.07666 16.827 8.98078 16.827 10.0959V40.5757C16.827 45.2121 19.1026 49.5562 22.9143 52.1958L33.905 59.8071C34.2507 60.0466 34.6527 60.1662 35.0546 60.1662C35.4582 60.1662 35.862 60.0455 36.2085 59.8041L47.116 52.2082C50.9088 49.5671 53.1732 45.2308 53.1732 40.609V10.0959C53.1732 8.98078 52.269 8.07666 51.154 8.07666ZM49.1348 40.609C49.1348 43.9104 47.5174 47.0076 44.808 48.894L35.0512 55.6884L25.2134 48.8756C22.4907 46.99 20.8653 43.8871 20.8653 40.5755V12.1151H20.8654H49.1346V40.609H49.1348Z" fill="#252525"/>
<path d="M36.7306 28.9425H33.269C32.4738 28.9425 31.8267 28.2954 31.8267 27.5002V25.7695C31.8267 24.9742 32.4738 24.3273 33.269 24.3273H36.7306C37.5257 24.3273 38.1728 24.9744 38.1728 25.7695C38.1728 26.8847 39.0769 27.7887 40.192 27.7887C41.3071 27.7887 42.2112 26.8846 42.2112 25.7695C42.2112 22.8441 39.9074 20.4469 37.0189 20.2965V18.8463C37.0189 17.7311 36.1148 16.8271 34.9997 16.8271C33.8846 16.8271 32.9805 17.7313 32.9805 18.8463V20.2962C30.0921 20.4468 27.7882 22.844 27.7882 25.7694V27.5001C27.7882 30.5223 30.247 32.9809 33.269 32.9809H36.7306C37.5257 32.9809 38.1728 33.628 38.1728 34.4231V36.1538C38.1728 36.9493 37.5259 37.5964 36.7306 37.5964H33.2691C32.474 37.5964 31.8269 36.9493 31.8269 36.1541C31.8269 35.0389 30.9228 34.1349 29.8077 34.1349C28.6926 34.1349 27.7885 35.039 27.7885 36.1541C27.7885 39.0795 30.0923 41.4767 32.9808 41.6272V43.0771C32.9808 44.1924 33.8849 45.0963 35 45.0963C36.1151 45.0963 37.0192 44.1922 37.0192 43.0771V41.6272C39.9076 41.4767 42.2115 39.0795 42.2115 36.1543V34.4235C42.2114 31.4011 39.7526 28.9425 36.7306 28.9425Z" fill="#252525"/>
</svg>
