<svg width="70" height="70" viewBox="0 0 70 70" fill="none" xmlns="http://www.w3.org/2000/svg">
<g clip-path="url(#clip0)">
<path d="M52.4999 0H17.4999C14.1597 0 11.4421 2.71742 11.4421 6.05773V18.8461C11.4421 22.1863 14.1596 24.9039 17.4999 24.9039H30.125L33.5721 28.3508C33.9663 28.7453 34.4831 28.9423 34.9999 28.9423C35.5167 28.9423 36.0335 28.7453 36.4276 28.3508L39.8747 24.9039H52.4999C55.84 24.9039 58.5576 22.1864 58.5576 18.8461V6.05773C58.5576 2.71742 55.84 0 52.4999 0ZM54.5191 18.8461C54.5191 19.9596 53.6133 20.8653 52.4999 20.8653H39.0383C38.5027 20.8653 37.9892 21.0782 37.6105 21.4568L34.9999 24.0674L32.3891 21.4568C32.0104 21.0781 31.4969 20.8653 30.9613 20.8653H17.4999C16.3864 20.8653 15.4807 19.9596 15.4807 18.8461V6.05773C15.4807 4.9443 16.3864 4.03854 17.4999 4.03854H52.4999C53.6133 4.03854 54.5191 4.9443 54.5191 6.05773V18.8461Z" fill="#252525"/>
<path d="M40.4729 11.0303C40.2355 10.2994 39.6035 9.76662 38.843 9.65602L37.4385 9.45189L36.8105 8.17932C36.4704 7.49012 35.7683 7.05371 34.9998 7.05371C34.2313 7.05371 33.5293 7.49012 33.1891 8.17932L32.5612 9.45189L31.1566 9.65602C30.3961 9.76648 29.7642 10.2994 29.5267 11.0303C29.2891 11.7612 29.4872 12.5638 30.0376 13.1001L31.0538 14.0906L30.8139 15.4893C30.684 16.2467 30.9953 17.0124 31.6171 17.4642C32.239 17.9159 33.0633 17.9755 33.7436 17.6178L34.9997 16.9575L36.2557 17.6178C36.551 17.7731 36.8737 17.8497 37.1952 17.8497C37.6139 17.8497 38.0305 17.7197 38.3822 17.464C39.004 17.0123 39.3155 16.2467 39.1855 15.4891L38.9455 14.0905L39.9617 13.1C40.5124 12.5638 40.7106 11.7613 40.4729 11.0303Z" fill="#252525"/>
<path d="M52.5884 11.0303C52.3509 10.2994 51.719 9.76662 50.9584 9.65602L49.554 9.45189L48.9261 8.17932C48.5859 7.49012 47.8839 7.05371 47.1154 7.05371C46.3469 7.05371 45.6448 7.49012 45.3047 8.17932L44.6767 9.45189L43.2724 9.65602C42.5118 9.76648 41.8799 10.2994 41.6424 11.0303C41.4048 11.7612 41.6029 12.5638 42.1533 13.1001L43.1696 14.0906L42.9296 15.4893C42.7997 16.2467 43.111 17.0124 43.7328 17.4642C44.3546 17.9159 45.1792 17.9755 45.8594 17.6178L47.1154 16.9575L48.3714 17.6178C48.6667 17.7731 48.9894 17.8497 49.311 17.8497C49.7296 17.8497 50.1463 17.7197 50.4979 17.464C51.1197 17.0123 51.4312 16.2467 51.3012 15.4891L51.0612 14.0905L52.0775 13.1C52.6278 12.5638 52.826 11.7613 52.5884 11.0303Z" fill="#252525"/>
<path d="M28.3576 11.0303C28.1202 10.2994 27.4883 9.76662 26.7277 9.65602L25.3233 9.45189L24.6954 8.17932C24.3552 7.49012 23.6532 7.05371 22.8847 7.05371C22.1162 7.05371 21.4141 7.49012 21.074 8.17932L20.446 9.45189L19.0416 9.65602C18.2811 9.76648 17.6491 10.2994 17.4117 11.0303C17.1741 11.7612 17.3723 12.5638 17.9226 13.1001L18.9388 14.0906L18.6989 15.4893C18.569 16.2467 18.8803 17.0124 19.5021 17.4642C20.124 17.9159 20.9484 17.9755 21.6286 17.6178L22.8847 16.9575L24.1407 17.6178C24.436 17.7731 24.7587 17.8497 25.0802 17.8497C25.4989 17.8497 25.9156 17.7197 26.2672 17.464C26.889 17.0123 27.2005 16.2467 27.0704 15.4891L26.8305 14.0905L27.8467 13.1C28.3972 12.5638 28.5953 11.7613 28.3576 11.0303Z" fill="#252525"/>
<path d="M34.9999 31.6348C29.4329 31.6348 24.9038 36.1638 24.9038 41.7309C24.9038 47.2979 29.4329 51.827 34.9999 51.827C40.567 51.827 45.0961 47.2979 45.0961 41.7309C45.0961 36.1638 40.567 31.6348 34.9999 31.6348ZM34.9999 47.7885C31.6598 47.7885 28.9422 45.0711 28.9422 41.7308C28.9422 38.3904 31.6596 35.673 34.9999 35.673C38.3402 35.673 41.0577 38.3904 41.0577 41.7308C41.0577 45.0711 38.3401 47.7885 34.9999 47.7885Z" fill="#252525"/>
<path d="M41.0578 53.1733H28.9425C20.7775 53.1733 14.1348 59.8161 14.1348 67.9811C14.1348 69.0963 15.0389 70.0003 16.154 70.0003H53.8462C54.9614 70.0003 55.8654 69.0961 55.8654 67.9811C55.8654 59.8161 49.2228 53.1733 41.0578 53.1733ZM18.3629 65.9619C19.3109 60.9857 23.6943 57.2119 28.9424 57.2119H41.0577C46.3058 57.2119 50.6891 60.9857 51.6371 65.9619H18.3629Z" fill="#252525"/>
</g>
<defs>
<clipPath id="clip0">
<rect width="70" height="70" fill="white"/>
</clipPath>
</defs>
</svg>
