<svg width="28" height="30" viewBox="0 0 28 30" fill="none" xmlns="http://www.w3.org/2000/svg">
<path d="M25.0913 10.7678L24.8179 10.2341L24.6163 10.7986C21.4331 19.7151 13.5104 25.9394 9.07086 28.8559L8.62427 29.1493L9.13075 29.3185C9.52742 29.4508 9.93386 29.5651 10.3377 29.6572L10.446 29.6826L10.5388 29.6212C11.5664 28.944 12.5993 28.2062 13.628 27.4116C13.9204 27.1366 14.6085 26.6354 14.6085 26.6354L14.7517 26.5179C18.4705 23.4771 23.3831 18.5336 25.6739 12.2521L25.7068 12.1609L25.6728 12.0708C25.5052 11.6329 25.3099 11.1945 25.0913 10.7678Z" fill="#252525"/>
<path d="M22.9406 7.72076L22.6379 7.3999L22.5053 7.81948C19.2945 17.9373 9.78461 24.7737 5.84414 27.2432L5.50928 27.4523L5.83476 27.6764C6.23499 27.9508 6.64256 28.2014 7.0457 28.4192L7.17843 28.4907L7.30647 28.411C11.318 25.8971 20.9562 18.9696 23.8305 8.94042L23.867 8.81442L23.7861 8.71108C23.5217 8.3683 23.2373 8.03456 22.9406 7.72076Z" fill="#252525"/>
<path d="M26.4554 18.2845L26.4874 17.9027C26.5228 17.4992 26.539 17.1324 26.539 16.7804C26.539 16.2321 26.5036 15.6825 26.4286 15.0987L26.3172 14.2229L25.9375 15.0202C22.7848 21.6413 17.1797 26.5632 13.0316 29.5257L12.3865 29.9877L13.3194 29.9999C14.3281 29.9999 15.3469 29.8817 16.3469 29.6477L17.049 29.4831L16.5626 29.2418C16.9463 28.9226 17.308 28.6125 17.6611 28.3016C18.0059 28.462 18.3552 28.6143 18.7074 28.7618L18.8138 28.8058L18.9169 28.7573C19.5229 28.4723 20.1067 28.1436 20.6524 27.7798L21.0538 27.5115L20.609 27.3252C20.1318 27.1257 19.7209 26.9449 19.3427 26.7658C19.6844 26.4337 20.0181 26.101 20.3374 25.7715C20.8873 26.0229 21.4713 26.2645 22.076 26.4912L22.2268 26.5468L22.3441 26.437C22.6855 26.1171 23.0165 25.7738 23.3253 25.415L23.5632 25.1395L23.2261 25.0048C22.6024 24.7553 22.0441 24.5139 21.5296 24.27C21.8199 23.9463 22.1173 23.6026 22.4309 23.2284C22.976 23.4817 23.5611 23.7283 24.1727 23.9612L24.3701 24.0366L24.4842 23.8577C24.6728 23.5592 24.8345 23.2843 24.9777 23.017L25.1113 22.767L24.8513 22.6556C24.2891 22.4155 23.8112 22.1974 23.373 21.9807C23.6402 21.6414 23.9081 21.2877 24.1849 20.9085C24.5535 21.0882 24.9515 21.2694 25.3969 21.4602L25.6491 21.5682L25.7428 21.3109C25.9097 20.8526 26.0572 20.3561 26.1815 19.834L26.2308 19.6287L25.9193 19.4823C25.733 19.3948 25.5472 19.3072 25.3635 19.2169C25.5893 18.8559 25.8132 18.4794 26.0418 18.0759L26.4554 18.2845Z" fill="#252525"/>
<path d="M20.7684 5.85998L20.4844 5.6665L20.3761 5.99258C17.0257 16.0799 7.5113 22.8266 3.57625 25.2594L3.31079 25.4229L3.52038 25.6537C3.75032 25.9078 4.00118 26.161 4.28645 26.4282L4.43054 26.5635L4.59912 26.4595C8.72851 23.9233 18.6415 16.9098 21.4957 6.60063L21.5423 6.4331L21.4047 6.32619C21.1971 6.1652 20.9861 6.0083 20.7684 5.85998Z" fill="#252525"/>
<path d="M27.6063 0.051664C27.351 -0.0722825 27.0397 0.034429 26.9145 0.290048C26.8606 0.398939 25.5578 2.94483 21.6614 2.02087C15.339 0.524008 10.5068 3.85907 10.5068 3.85907L10.7343 4.18812C11.1138 4.73786 11.5011 5.27399 11.887 5.78635C11.6763 6.02533 11.5347 6.19028 11.4107 6.3351C11.2702 6.49913 11.1515 6.63727 10.9764 6.83128C10.3978 6.05874 9.82286 5.24269 9.2658 4.40082L9.15413 4.2327L8.96508 4.2986C8.70444 4.38972 8.44618 4.48594 8.193 4.59219L7.91355 4.70966L8.07381 4.96726C9.24123 6.84647 11.1885 9.68449 13.8764 12.6105C13.6056 12.9599 13.322 13.3108 13.0167 13.6716C9.98214 10.3932 7.86858 7.17902 6.86869 5.53423L6.73483 5.31355L6.51355 5.4468C6.11543 5.68671 5.72259 5.95309 5.34527 6.23855L5.16071 6.37868L5.27937 6.57771C6.10354 7.96185 8.3637 11.5359 11.7338 15.1504C11.428 15.4892 11.1184 15.8207 10.8101 16.1412C7.56918 12.679 5.35861 9.28096 4.32035 7.54465L4.14873 7.25713L3.91371 7.49506C3.6023 7.8105 3.29953 8.15071 3.014 8.50644L2.90127 8.6467L2.99267 8.80108C3.80945 10.1802 6.05111 13.7396 9.41722 17.3643C9.10124 17.6659 8.77325 17.9687 8.42393 18.2826C5.56292 15.2009 3.51718 12.1974 2.29792 10.2044L2.06931 9.83069L1.85166 10.2104C1.59043 10.6656 1.35984 11.1258 1.16589 11.5778L1.10976 11.7089L1.18914 11.8274C1.82003 12.7457 2.47786 13.6412 3.14765 14.4908C2.81219 14.7631 2.46096 15.039 2.0845 15.3251C1.68637 14.8188 1.28614 14.2898 0.893038 13.749L0.557254 13.2858L0.431458 13.8443C0.211432 14.8147 0.100098 15.8024 0.100098 16.7805C0.100098 17.1338 0.11654 17.5024 0.151406 17.9078L0.188584 18.3508L0.555603 18.1007C1.75261 17.2846 2.92201 16.4113 4.03601 15.5042C4.31401 15.8258 4.60965 16.1578 4.93229 16.5122C3.54722 17.6382 2.09004 18.7007 0.596082 19.6737L0.441693 19.774L0.485738 19.9526C0.606581 20.4443 0.755819 20.9302 0.930414 21.3986L1.04234 21.6981L1.31242 21.5266C2.45759 20.8002 4.20862 19.6155 6.13617 18.0465C6.42447 18.3797 6.72387 18.7163 7.03245 19.0536C4.94543 20.7505 3.04913 22.0111 1.80999 22.7786L1.60172 22.9077L1.71992 23.1231C1.91677 23.4822 2.13105 23.8334 2.3561 24.1666L2.49556 24.3732L2.7074 24.2414C6.64925 21.799 16.1535 15.0541 19.2547 5.21126L19.3222 4.99823L19.1216 4.89991C18.9149 4.79973 18.7064 4.70306 18.495 4.61239L18.2488 4.5076L18.1517 4.75569C17.2586 7.03374 16.0026 9.27752 14.4181 11.4289C14.0965 11.0726 13.7932 10.7269 13.5129 10.3973C14.9388 8.43651 16.0759 6.40351 16.896 4.35063L17.0045 4.0787L16.7219 4.00382C16.483 3.94003 16.2429 3.88185 15.999 3.83173L15.7997 3.79073L15.7127 3.9745C14.8944 5.7079 13.8736 7.40842 12.6761 9.03445C12.3539 8.67601 12.0506 8.33026 11.7717 8.00227C12.7343 6.67887 13.5699 5.31817 14.2574 3.95482L14.4362 3.60048L14.0398 3.57922C13.8329 3.56865 13.6233 3.56509 13.414 3.56403C15.0702 2.8817 17.8631 2.18405 21.4242 3.0275C26.1549 4.14837 27.8332 0.772099 27.8504 0.737695C27.9717 0.483 27.8633 0.17561 27.6063 0.051664Z" fill="#252525"/>
</svg>
