<svg width="70" height="70" viewBox="0 0 70 70" fill="none" xmlns="http://www.w3.org/2000/svg">
<g clip-path="url(#clip0)">
<path d="M28.0522 19.6436H41.0759C42.2085 19.6436 43.1267 18.7254 43.1267 17.5928C43.1267 16.4602 42.2085 15.542 41.0759 15.542H28.0522C26.9197 15.542 26.0015 16.4602 26.0015 17.5928C26.0015 18.7254 26.9195 19.6436 28.0522 19.6436Z" fill="#E34040"/>
<path d="M50.0432 0H2.05078C0.918203 0 0 0.918203 0 2.05078V67.9492C0 69.0818 0.918203 70 2.05078 70H50.0432C51.1757 70 52.0939 69.0818 52.0939 67.9492V2.05078C52.0939 0.918203 51.1757 0 50.0432 0ZM47.9924 65.8984H4.10156V4.10156H47.9924V65.8984Z" fill="#E34040"/>
<path d="M70 49.6975V6.96049C70 3.12252 66.8775 0 63.0395 0C59.2014 0 56.0789 3.12252 56.0789 6.96049V49.6974C56.0789 50.7674 56.8987 51.645 57.9442 51.7388L56.2013 56.554C56.0181 57.0603 56.0412 57.6182 56.2658 58.1074L61.1757 68.8045C61.5099 69.533 62.2381 69.9999 63.0395 69.9999C63.841 69.9999 64.5692 69.533 64.9034 68.8045L69.8131 58.1074C70.0378 57.6181 70.0609 57.0601 69.8777 56.554L68.1348 51.7388C69.1803 51.645 70 50.7675 70 49.6975ZM60.1805 47.6468V17.077H65.8985V47.6466H60.1805V47.6468ZM63.0395 4.10156C64.6159 4.10156 65.8985 5.38412 65.8985 6.96049V12.9754H60.1805V6.96049C60.1805 5.38412 61.463 4.10156 63.0395 4.10156ZM63.0395 63.0329L60.344 57.1601L62.3028 51.7482H63.7762L65.7351 57.1601L63.0395 63.0329Z" fill="#E34040"/>
<path d="M12.4004 21.4918C12.785 21.8764 13.3066 22.0925 13.8505 22.0925C14.3944 22.0925 14.9161 21.8764 15.3005 21.4919L21.5298 15.2626C22.3307 14.4617 22.3307 13.1633 21.5298 12.3624C20.7291 11.5615 19.4305 11.5615 18.6296 12.3624L13.8505 17.1415L12.3649 15.6557C11.5643 14.8548 10.2657 14.8548 9.46469 15.6557C8.66379 16.4566 8.66379 17.755 9.46469 18.5559L12.4004 21.4918Z" fill="#E34040"/>
<path d="M28.0522 32.0859H41.0759C42.2085 32.0859 43.1267 31.1677 43.1267 30.0352C43.1267 28.9026 42.2085 27.9844 41.0759 27.9844H28.0522C26.9197 27.9844 26.0015 28.9026 26.0015 30.0352C26.0015 31.1677 26.9195 32.0859 28.0522 32.0859Z" fill="#E34040"/>
<path d="M12.4004 33.9337C12.785 34.3183 13.3066 34.5344 13.8505 34.5344C14.3944 34.5344 14.9161 34.3183 15.3005 33.9338L21.5298 27.7045C22.3307 26.9036 22.3307 25.6052 21.5298 24.8043C20.7291 24.0034 19.4305 24.0034 18.6296 24.8043L13.8505 29.5834L12.3649 28.0978C11.5643 27.2969 10.2657 27.2969 9.46469 28.0978C8.66379 28.8987 8.66379 30.1972 9.46469 30.9981L12.4004 33.9337Z" fill="#E34040"/>
<path d="M28.0522 44.5278H41.0759C42.2085 44.5278 43.1267 43.6096 43.1267 42.4771C43.1267 41.3445 42.2085 40.4263 41.0759 40.4263H28.0522C26.9197 40.4263 26.0015 41.3445 26.0015 42.4771C26.0015 43.6096 26.9195 44.5278 28.0522 44.5278Z" fill="#E34040"/>
<path d="M28.0522 57.4463H41.0759C42.2085 57.4463 43.1267 56.5281 43.1267 55.3955C43.1267 54.2629 42.2085 53.3447 41.0759 53.3447H28.0522C26.9197 53.3447 26.0015 54.2629 26.0015 55.3955C26.0015 56.5281 26.9195 57.4463 28.0522 57.4463Z" fill="#E34040"/>
<path d="M12.4005 46.3759C12.7851 46.7605 13.3067 46.9766 13.8505 46.9766C14.3944 46.9766 14.9161 46.7605 15.3006 46.376L21.5299 40.1468C22.3308 39.3459 22.3308 38.0475 21.5299 37.2466C20.7291 36.4457 19.4306 36.4459 18.6297 37.2466L13.8505 42.0258L12.365 40.5399C11.5643 39.739 10.2658 39.739 9.46474 40.5399C8.6637 41.3408 8.66384 42.6392 9.46474 43.4401L12.4005 46.3759Z" fill="#E34040"/>
</g>
<defs>
<clipPath id="clip0">
<rect width="70" height="70" fill="white"/>
</clipPath>
</defs>
</svg>
