<svg width="30" height="30" viewBox="0 0 30 30" fill="none" xmlns="http://www.w3.org/2000/svg">
<g clip-path="url(#clip0)">
<path d="M28.6025 4.76078L25.2698 1.4281C24.809 0.967325 24.0631 0.967325 23.6035 1.4281L21.1028 3.92644L26.103 8.92664L28.6025 6.42713C29.0633 5.96635 29.0633 5.22038 28.6025 4.76078Z" fill="#252525"/>
<path d="M1.83496 23.1353V28.1649H6.86462L1.83496 23.1353Z" fill="#252525"/>
<path d="M6.66654 0.000976562L0 6.66751L3.33386 10.0002L5.0002 8.33385L5.83337 9.16702L4.16703 10.8334L5.83337 12.4997L9.16723 9.16702L10.0004 10.0002L6.66654 13.3329L8.33406 14.9992L15.0006 8.33385L6.66654 0.000976562Z" fill="#252525"/>
<path d="M20.848 14.1814L24.4352 10.593L19.4362 5.59277L3.51172 21.5184L8.51192 26.5175L15.8478 19.1816L16.6668 19.9994L15.0005 21.6658L16.6668 23.3333L19.9995 19.9994L20.8327 20.8326L17.5 24.1664L19.1664 25.8328L20.8327 24.1664L21.6659 24.9996L19.9995 26.666L23.3334 29.9986L29.9999 23.3321L20.848 14.1814Z" fill="#252525"/>
</g>
<defs>
<clipPath id="clip0">
<rect width="30" height="30" fill="white"/>
</clipPath>
</defs>
</svg>
