<svg width="70" height="70" viewBox="0 0 70 70" fill="none" xmlns="http://www.w3.org/2000/svg">
<g clip-path="url(#clip0)">
<path d="M66.0808 31.0879H64.4155V21.0818C64.4155 16.9903 61.0849 13.6741 57.0078 13.6741H55.4717L55.4861 9.95586C55.4861 7.1995 53.2465 4.95996 50.4902 4.95996H6.0726C2.75636 4.95996 0.0430681 7.63018 0 10.9464C0 10.9751 0 11.0038 0 11.0326V60.0441C0 62.8004 2.23954 65.0399 4.9959 65.0399H57.0221C61.1136 65.0399 64.4299 61.7094 64.4299 57.6322V47.6117H66.0952C68.2486 47.6117 70 45.8603 70 43.7069V34.9928C69.9856 32.8394 68.2342 31.0879 66.0808 31.0879ZM6.0726 8.40541H50.4902C51.3372 8.40541 52.0406 9.0945 52.0406 9.9415L52.0262 13.6741H6.0726C4.62264 13.6741 3.44545 12.4969 3.44545 11.0469C3.44545 9.59696 4.62264 8.40541 6.0726 8.40541ZM60.9701 57.6179C60.9701 59.8 59.1899 61.5802 57.0078 61.5802H4.98154C4.13454 61.5802 3.43109 60.8911 3.43109 60.0297V16.5166C4.23503 16.9042 5.1251 17.1195 6.0726 17.1195H57.0078C59.1899 17.1195 60.9701 18.8997 60.9701 21.0818V31.0879H49.2125C47.0591 31.0879 45.3076 32.8394 45.3076 34.9928V43.7069C45.3076 45.8603 47.0591 47.6117 49.2125 47.6117H60.9701V57.6179ZM66.5402 43.7069C66.5402 43.9653 66.3392 44.1663 66.0808 44.1663H49.2268C48.9684 44.1663 48.7674 43.9653 48.7674 43.7069V34.9928C48.7674 34.7487 48.9684 34.5334 49.2268 34.5334H66.0808C66.3249 34.5334 66.5402 34.7344 66.5402 34.9928V43.7069Z" fill="#E34040" stroke="#E34040"/>
</g>
<defs>
<clipPath id="clip0">
<rect width="70" height="70" fill="white"/>
</clipPath>
</defs>
</svg>
