<svg width="90" height="90" viewBox="0 0 90 90" fill="none" xmlns="http://www.w3.org/2000/svg">
<g clip-path="url(#clip0)">
<path d="M88.4294 67.7745C88.4632 67.7678 88.4962 67.7587 88.5296 67.7501C88.5579 67.7428 88.5865 67.7368 88.6144 67.7282C88.6469 67.7183 88.6787 67.7061 88.7104 67.6946C88.7385 67.6845 88.7669 67.6754 88.7947 67.6637C88.8247 67.6512 88.8536 67.6366 88.8827 67.6228C88.9111 67.6093 88.94 67.5968 88.9678 67.5817C88.9956 67.5669 89.0219 67.5499 89.049 67.5338C89.0768 67.5172 89.1049 67.5015 89.132 67.4833C89.1609 67.4641 89.1877 67.4427 89.2155 67.4219C89.239 67.4045 89.2629 67.3881 89.2858 67.3693C89.328 67.3347 89.368 67.2978 89.4071 67.2598C89.4141 67.253 89.4217 67.2473 89.4287 67.2403C89.436 67.233 89.4422 67.2249 89.4492 67.2174C89.4867 67.1788 89.5232 67.1393 89.5575 67.0977C89.5775 67.0732 89.595 67.0477 89.6137 67.0224C89.633 66.9964 89.6533 66.9712 89.6712 66.9441C89.6905 66.9152 89.7074 66.8853 89.7251 66.8556C89.7399 66.8306 89.7558 66.8062 89.7696 66.7804C89.7857 66.7505 89.7993 66.7195 89.8136 66.6891C89.8263 66.662 89.8399 66.6352 89.8516 66.6074C89.8641 66.5774 89.874 66.547 89.8849 66.5165C89.8956 66.4869 89.907 66.4575 89.9161 66.4273C89.9255 66.3966 89.9323 66.3653 89.9401 66.3341C89.9476 66.3034 89.9565 66.2732 89.9624 66.2422C89.9697 66.2056 89.9742 66.1686 89.9794 66.1316C89.983 66.1056 89.9879 66.0799 89.9905 66.0536C89.9971 65.9888 90.0004 65.924 90.0004 65.8589V24.1403C90.0004 23.0621 89.1268 22.1885 88.0486 22.1885H26.5668C26.5496 22.1885 26.533 22.1906 26.5158 22.1911C26.4786 22.1921 26.4416 22.1937 26.4047 22.1968C26.3753 22.1991 26.3461 22.2025 26.317 22.2064C26.2837 22.2106 26.2506 22.2155 26.2176 22.2215C26.1866 22.227 26.1559 22.2335 26.1254 22.2405C26.0945 22.2478 26.0635 22.2556 26.0328 22.2645C26.0024 22.2731 25.9724 22.2824 25.9428 22.2923C25.9123 22.3027 25.8819 22.3137 25.8519 22.3256C25.8236 22.3368 25.7957 22.3483 25.7681 22.3608C25.7374 22.3745 25.707 22.3894 25.6768 22.4047C25.651 22.418 25.6258 22.4315 25.6008 22.4459C25.5706 22.463 25.5409 22.4812 25.5115 22.5C25.4873 22.5156 25.4637 22.5317 25.4402 22.5481C25.4126 22.5676 25.3853 22.5879 25.3585 22.6093C25.3341 22.6288 25.3101 22.6488 25.2864 22.6694C25.263 22.69 25.2399 22.7105 25.2172 22.7324C25.1914 22.7571 25.1667 22.7829 25.1423 22.8089C25.13 22.8219 25.117 22.8334 25.1053 22.8466C25.0983 22.8544 25.0928 22.863 25.086 22.8708C25.0616 22.8992 25.0387 22.9289 25.0158 22.9588C24.9991 22.9806 24.982 23.0025 24.9663 23.0249C24.946 23.054 24.9273 23.084 24.9086 23.1142C24.8932 23.1389 24.8773 23.1633 24.8633 23.1886C24.8469 23.2177 24.8326 23.2477 24.8177 23.2776C24.8042 23.3049 24.7902 23.3322 24.7779 23.3601C24.7652 23.3895 24.754 23.4199 24.7428 23.4499C24.7316 23.4793 24.7202 23.5084 24.7105 23.5381C24.7009 23.568 24.6931 23.5985 24.6848 23.6289C24.6764 23.6601 24.6676 23.6911 24.6606 23.7226C24.654 23.752 24.6496 23.7819 24.6444 23.8116C24.6387 23.8454 24.633 23.8793 24.6288 23.9131C24.6254 23.9412 24.6239 23.9698 24.6218 23.9984C24.6192 24.0349 24.6168 24.0713 24.6163 24.108C24.6161 24.1187 24.6148 24.1291 24.6148 24.1398V36.1764C24.6148 37.2546 25.4884 38.1282 26.5666 38.1282C27.6447 38.1282 28.5184 37.2546 28.5184 36.1764V28.4746L45.8715 43.8384C45.7809 43.9022 45.6937 43.9727 45.6125 44.0536L28.5181 61.148V48.3213C28.5181 47.2431 27.6445 46.3695 26.5663 46.3695C25.4881 46.3695 24.6145 47.2431 24.6145 48.3213V50.7061H14.5302C13.452 50.7061 12.5784 51.5798 12.5784 52.6579C12.5784 53.7361 13.452 54.6098 14.5302 54.6098H24.6145V65.8602C24.6145 66.9384 25.4881 67.812 26.5663 67.812H88.0481C88.1124 67.812 88.1767 67.8086 88.2407 67.8024C88.2706 67.7995 88.2995 67.7938 88.3289 67.7896C88.3627 67.7849 88.3961 67.781 88.4294 67.7745ZM86.0966 61.1483L69.0019 44.0539C68.991 44.0429 68.9792 44.0338 68.9681 44.0234L81.8195 33.1201C82.6414 32.4227 82.7423 31.1912 82.0449 30.3691C81.348 29.5476 80.1165 29.4461 79.2939 30.1438L57.3345 48.7744L31.7154 26.0923H86.0966V61.1483V61.1483ZM48.3732 46.8145C48.5124 46.6753 48.6253 46.5202 48.7135 46.3552L56.0135 52.8183C56.3826 53.1449 56.8448 53.3088 57.3075 53.3088C57.7566 53.3088 58.2056 53.1545 58.5704 52.8453L66.0099 46.5335C66.0776 46.6323 66.1538 46.7268 66.2415 46.8145L83.3359 63.9089H31.2787L48.3732 46.8145Z" fill="#E34040"/>
<path d="M1.9518 44.4173H34.9157C35.9939 44.4173 36.8675 43.5437 36.8675 42.4655C36.8675 41.3873 35.9939 40.5137 34.9157 40.5137H1.9518C0.873627 40.5137 0 41.3873 0 42.4655C0 43.5437 0.873627 44.4173 1.9518 44.4173Z" fill="#E34040"/>
<path d="M5.36757 33.6614H20.1688C21.2469 33.6614 22.1206 32.7878 22.1206 31.7096C22.1206 30.6314 21.2469 29.7578 20.1688 29.7578H5.36757C4.2894 29.7578 3.41577 30.6314 3.41577 31.7096C3.41577 32.7878 4.2894 33.6614 5.36757 33.6614Z" fill="#E34040"/>
<path d="M16.265 58.9473H1.9518C0.873627 58.9473 0 59.8209 0 60.8991C0 61.9772 0.873627 62.8509 1.9518 62.8509H16.265C17.3432 62.8509 18.2168 61.9772 18.2168 60.8991C18.2168 59.8209 17.3432 58.9473 16.265 58.9473Z" fill="#E34040"/>
</g>
<defs>
<clipPath id="clip0">
<rect width="90" height="90" fill="white"/>
</clipPath>
</defs>
</svg>
