<svg width="70" height="70" viewBox="0 0 70 70" fill="none" xmlns="http://www.w3.org/2000/svg">
<g clip-path="url(#clip0)">
<path d="M69.8221 36.8638L67.4183 31.5218V31.5217L63.7647 23.4022C63.4385 22.6776 62.7177 22.2116 61.9231 22.2116H50.4808V18.8462C50.4808 16.2483 48.3673 14.1348 45.7692 14.1348H4.7116C2.11354 14.1348 0 16.2483 0 18.8462V45.7693C0 48.3672 2.11354 50.4809 4.7116 50.4809H9.03219C9.91348 53.5847 12.7714 55.8656 16.1539 55.8656C19.5363 55.8656 22.3941 53.5848 23.2755 50.4809H41.3399C42.2212 53.5847 45.0792 55.8656 48.4616 55.8656C51.844 55.8656 54.7019 53.5848 55.5833 50.4809H65.2885C67.8865 50.4809 70.0001 48.3674 70.0001 45.7693V37.6924C70 37.4068 69.9394 37.1243 69.8221 36.8638ZM50.4808 26.2501H60.6175L62.4348 30.2885H50.4808V26.2501ZM16.1539 51.827C14.2982 51.827 12.7885 50.3174 12.7885 48.4617C12.7885 46.606 14.2982 45.0964 16.1539 45.0964C18.0096 45.0964 19.5192 46.606 19.5192 48.4617C19.5192 50.3174 18.0096 51.827 16.1539 51.827ZM44.7784 42.0432C44.7426 42.0638 44.7063 42.0838 44.6708 42.1051C44.5505 42.1771 44.432 42.2517 44.3162 42.3301C44.2993 42.3416 44.2832 42.3539 44.2664 42.3655C44.1669 42.4342 44.0694 42.5053 43.9734 42.5787C43.9372 42.6063 43.9018 42.6347 43.8661 42.663C43.7875 42.7255 43.7102 42.7895 43.6343 42.855C43.601 42.8838 43.5672 42.9121 43.5343 42.9417C43.4327 43.0326 43.3327 43.1254 43.2362 43.2215C43.2312 43.2266 43.226 43.2318 43.2209 43.2369C43.1246 43.3334 43.032 43.4332 42.941 43.5348C42.9115 43.5677 42.8832 43.6013 42.8544 43.6348C42.7889 43.7109 42.7249 43.788 42.6624 43.8667C42.6341 43.9023 42.6058 43.9378 42.5783 43.9739C42.5049 44.0699 42.4338 44.1676 42.365 44.2673C42.3536 44.284 42.3413 44.3 42.3299 44.3167C42.2514 44.4325 42.1768 44.551 42.1047 44.6713C42.0835 44.7067 42.0637 44.7428 42.0431 44.7785C41.9915 44.8679 41.9418 44.9583 41.8939 45.05C41.8727 45.0905 41.8518 45.1311 41.8313 45.1721C41.7803 45.2746 41.7316 45.3786 41.6853 45.4837C41.6738 45.5097 41.6615 45.535 41.6503 45.5611C41.5944 45.6918 41.5425 45.8247 41.4941 45.9591C41.4817 45.9934 41.4708 46.0285 41.4589 46.0631C41.4233 46.1665 41.39 46.2706 41.3589 46.3759C41.3524 46.3982 41.344 46.4199 41.3376 46.4424H23.2779C23.2676 46.4063 23.2559 46.371 23.2451 46.3352C23.2329 46.295 23.221 46.2545 23.2081 46.2146C23.1846 46.1408 23.1596 46.0678 23.1338 45.995C23.122 45.9622 23.1112 45.929 23.099 45.8963C23.0605 45.7924 23.02 45.6893 22.9771 45.5876C22.9709 45.573 22.964 45.5586 22.9575 45.544C22.9198 45.4565 22.8807 45.3698 22.8397 45.2839C22.8236 45.25 22.8065 45.2168 22.7898 45.1832C22.757 45.117 22.7233 45.051 22.6886 44.9859C22.6691 44.9495 22.6494 44.9133 22.6293 44.8773C22.5943 44.8145 22.5585 44.7522 22.5217 44.6904C22.5013 44.6563 22.4813 44.6221 22.4604 44.5883C22.4183 44.52 22.3748 44.4527 22.3305 44.3858C22.314 44.3608 22.298 44.3353 22.2812 44.3105C22.2194 44.2196 22.1558 44.1302 22.0903 44.0423C22.0778 44.0254 22.0645 44.0093 22.0518 43.9925C21.9979 43.9217 21.9431 43.8515 21.8868 43.7826C21.8632 43.7538 21.8389 43.7256 21.8151 43.6973C21.7675 43.641 21.7196 43.5852 21.6705 43.5304C21.6438 43.5006 21.6169 43.4711 21.5897 43.4417C21.54 43.3879 21.4895 43.3352 21.4383 43.2829C21.4119 43.2559 21.3857 43.2288 21.3587 43.2021C21.2985 43.1424 21.2368 43.084 21.1745 43.0264C21.1561 43.0095 21.1384 42.992 21.1199 42.9753C21.0384 42.9015 20.9553 42.8294 20.8707 42.7593C20.8514 42.7433 20.8314 42.7283 20.812 42.7124C20.7461 42.6588 20.6794 42.6062 20.6117 42.5549C20.5816 42.5322 20.551 42.5101 20.5205 42.4878C20.4612 42.4443 20.4014 42.4016 20.3409 42.3599C20.3082 42.3374 20.2753 42.3151 20.242 42.2931C20.1801 42.2519 20.1173 42.2119 20.054 42.1725C20.0229 42.1529 19.9917 42.1333 19.9603 42.1143C19.8825 42.0674 19.8036 42.0222 19.724 41.9782C19.7068 41.9687 19.6901 41.9585 19.6729 41.9491C19.5755 41.8963 19.4767 41.8459 19.3769 41.7972C19.3505 41.7844 19.3236 41.7726 19.297 41.76C19.2229 41.7252 19.1484 41.6911 19.0731 41.6587C19.0371 41.6433 19.0009 41.6285 18.9647 41.6136C18.8966 41.5854 18.8279 41.5584 18.7589 41.5322C18.7209 41.518 18.683 41.5038 18.6447 41.4901C18.573 41.4644 18.5005 41.4401 18.4278 41.4164C18.393 41.4051 18.3585 41.3935 18.3235 41.3827C18.228 41.3533 18.1316 41.3261 18.0346 41.3004C18.0223 41.2971 18.0105 41.2934 17.9982 41.2903C17.889 41.2621 17.7784 41.2368 17.6672 41.2137C17.6343 41.2069 17.6009 41.2011 17.5677 41.1947C17.4887 41.1794 17.4092 41.1647 17.3292 41.152C17.2884 41.1455 17.2472 41.1396 17.2061 41.1338C17.1318 41.1232 17.0572 41.1136 16.9822 41.1053C16.9401 41.1006 16.8982 41.096 16.8556 41.092C16.7765 41.0845 16.6969 41.0789 16.6171 41.0738C16.5799 41.0715 16.543 41.0686 16.5058 41.0669C16.3892 41.0611 16.272 41.0576 16.154 41.0576C16.036 41.0576 15.9188 41.0611 15.8022 41.0664C15.7649 41.0682 15.728 41.0711 15.6909 41.0734C15.6111 41.0783 15.5315 41.0842 15.4524 41.0916C15.4101 41.0957 15.368 41.1002 15.3258 41.1049C15.2508 41.1132 15.1762 41.1228 15.102 41.1334C15.0609 41.1393 15.0196 41.1452 14.9788 41.1516C14.8988 41.1645 14.8195 41.179 14.7403 41.1943C14.7072 41.2007 14.6739 41.2064 14.6408 41.2133C14.5296 41.2364 14.419 41.2617 14.3098 41.2898C14.2975 41.293 14.2857 41.2967 14.2734 41.3C14.1764 41.3255 14.08 41.3529 13.9846 41.3823C13.9496 41.3931 13.9151 41.4047 13.8802 41.416C13.8074 41.4396 13.735 41.4639 13.6633 41.4897C13.625 41.5034 13.5871 41.5176 13.5491 41.5318C13.4799 41.5579 13.4114 41.5852 13.3433 41.6132C13.3071 41.6281 13.2707 41.6429 13.2349 41.6583C13.1596 41.6907 13.0851 41.7247 13.011 41.7596C12.9845 41.7722 12.9575 41.7838 12.9311 41.7968C12.8312 41.8452 12.7325 41.8958 12.6351 41.9487C12.6179 41.9581 12.6011 41.9682 12.584 41.9778C12.5044 42.0218 12.4255 42.0671 12.3478 42.1137C12.3162 42.1327 12.2851 42.1525 12.254 42.172C12.1907 42.2112 12.1279 42.2514 12.066 42.2925C12.0329 42.3145 11.9999 42.337 11.9671 42.3594C11.9066 42.4011 11.8467 42.4437 11.7875 42.4872C11.757 42.5095 11.7265 42.5317 11.6963 42.5544C11.6285 42.6056 11.5618 42.6583 11.496 42.7119C11.4766 42.7276 11.4568 42.7429 11.4373 42.7587C11.3527 42.8289 11.2695 42.9011 11.188 42.9748C11.1695 42.9914 11.1517 43.0089 11.1334 43.0259C11.0711 43.0835 11.0094 43.142 10.9491 43.2016C10.9222 43.2281 10.8959 43.2553 10.8696 43.2824C10.8184 43.3346 10.7678 43.3874 10.7182 43.4411C10.691 43.4705 10.6641 43.5 10.6374 43.5298C10.5883 43.5848 10.5402 43.6404 10.4928 43.6968C10.4688 43.7252 10.4446 43.7534 10.4211 43.7821C10.3648 43.8509 10.3101 43.921 10.2561 43.992C10.2434 44.0086 10.2301 44.0249 10.2175 44.0417C10.1519 44.1296 10.0883 44.2192 10.0267 44.31C10.0099 44.3348 9.99387 44.3603 9.97732 44.3853C9.93303 44.452 9.88955 44.5194 9.84744 44.5878C9.82652 44.6215 9.80656 44.6557 9.78619 44.6899C9.74941 44.7517 9.71346 44.8139 9.67859 44.8768C9.6585 44.9129 9.63881 44.949 9.61926 44.9854C9.58453 45.0506 9.5509 45.1165 9.51809 45.1826C9.50141 45.2163 9.48432 45.2495 9.46818 45.2834C9.4273 45.3691 9.38807 45.4558 9.35033 45.5434C9.34404 45.5581 9.33721 45.5724 9.33078 45.587C9.28785 45.6888 9.24738 45.7919 9.20883 45.8958C9.19666 45.9284 9.18586 45.9617 9.1741 45.9945C9.14826 46.0673 9.12324 46.1402 9.09973 46.214C9.08687 46.254 9.07498 46.2943 9.06281 46.3346C9.05201 46.3704 9.04025 46.4059 9.03 46.4418H4.7116C4.34041 46.442 4.03854 46.1399 4.03854 45.7689V18.8462C4.03854 18.475 4.34041 18.1732 4.7116 18.1732H45.7693C46.1405 18.1732 46.4424 18.475 46.4424 18.8462V41.3377C46.4193 41.3443 46.397 41.3527 46.374 41.3594C46.2701 41.3901 46.1673 41.4231 46.0652 41.4581C46.0295 41.4704 45.9936 41.4817 45.9581 41.4945C45.824 41.5428 45.6917 41.5946 45.5614 41.6502C45.5345 41.6617 45.5083 41.6746 45.4815 41.6863C45.3772 41.7324 45.274 41.7807 45.1721 41.8312C45.131 41.8518 45.0901 41.8729 45.0494 41.8943C44.9579 41.9421 44.8677 41.9918 44.7784 42.0432ZM48.4616 51.827C46.6059 51.827 45.0963 50.3174 45.0963 48.4617C45.0963 46.606 46.6059 45.0964 48.4616 45.0964C50.3173 45.0964 51.8269 46.606 51.8269 48.4617C51.8269 50.3174 50.3172 51.827 48.4616 51.827ZM65.9616 45.7693C65.9616 46.1405 65.6597 46.4424 65.2885 46.4424H55.5856C55.5793 46.4199 55.571 46.3982 55.5643 46.3759C55.5334 46.2705 55.4999 46.1663 55.4643 46.0631C55.4524 46.0285 55.4415 45.9935 55.4291 45.9591C55.3807 45.8245 55.3287 45.6919 55.2729 45.5611C55.2617 45.535 55.2494 45.5097 55.2379 45.4837C55.1914 45.3786 55.1429 45.2746 55.0919 45.1721C55.0714 45.1311 55.0505 45.0905 55.0293 45.05C54.9814 44.9584 54.9317 44.8679 54.8801 44.7785C54.8595 44.7427 54.8397 44.7067 54.8185 44.6713C54.7464 44.551 54.6718 44.4323 54.5933 44.3167C54.582 44.2998 54.5696 44.2838 54.5582 44.2673C54.4895 44.1676 54.4183 44.07 54.3449 43.974C54.3173 43.9379 54.2888 43.9025 54.2608 43.8669C54.1983 43.7882 54.1343 43.711 54.0688 43.635C54.04 43.6016 54.0117 43.5679 53.9822 43.5349C53.8913 43.4333 53.7986 43.3335 53.7023 43.237C53.6972 43.2319 53.6921 43.2267 53.687 43.2217C53.5905 43.1254 53.4907 43.0326 53.3889 42.9418C53.3561 42.9124 53.3225 42.884 53.2889 42.8551C53.213 42.7896 53.1357 42.7257 53.0571 42.6632C53.0214 42.6349 52.986 42.6066 52.9498 42.5788C52.854 42.5054 52.7562 42.4345 52.6568 42.3657C52.64 42.3541 52.624 42.3418 52.607 42.3303C52.4912 42.2518 52.3729 42.1771 52.2525 42.1052C52.2171 42.0839 52.1809 42.0641 52.1449 42.0433C52.0557 41.9919 51.9654 41.9421 51.874 41.8944C51.8332 41.8731 51.7923 41.852 51.7512 41.8314C51.6495 41.7807 51.5461 41.7324 51.4418 41.6865C51.415 41.6746 51.3889 41.6619 51.362 41.6504C51.2317 41.5946 51.0993 41.5429 50.9652 41.4946C50.9298 41.4818 50.8937 41.4706 50.8581 41.4583C50.7562 41.4233 50.6532 41.3903 50.5493 41.3596C50.5263 41.3529 50.504 41.3444 50.4809 41.3378V34.3274H64.2522L65.9616 38.1263V45.7693Z" fill="#252525"/>
</g>
<defs>
<clipPath id="clip0">
<rect width="70" height="70" fill="white"/>
</clipPath>
</defs>
</svg>
