<svg width="70" height="70" viewBox="0 0 70 70" fill="none" xmlns="http://www.w3.org/2000/svg">
<g clip-path="url(#clip0)">
<path d="M63.9422 37.6922V28.9422C63.9422 25.6022 61.2249 22.8844 57.8844 22.8844H55.0117L58.4724 11.3493C58.631 10.8211 58.5664 10.2502 58.2935 9.77058C58.0206 9.291 57.5634 8.94386 57.0283 8.81035L47.7885 6.50055V2.01927C47.7885 0.90416 46.8844 0 45.7693 0H10.7693C9.65416 0 8.75 0.90416 8.75 2.01927V22.8844H6.05782C2.71729 22.8844 0 25.6022 0 28.9422V63.9422C0 67.2827 2.71729 70 6.05782 70H57.8844C61.2249 70 63.9422 67.2827 63.9422 63.9422V55.1922C67.2827 55.1922 70 52.4749 70 49.1344V43.75C70 40.41 67.2827 37.6922 63.9422 37.6922ZM53.9964 12.215L50.9977 22.2115H47.7885V10.663L53.9964 12.215ZM12.7885 4.03854H43.75V22.8844H12.7885V4.03854ZM59.9036 63.9422C59.9036 65.0557 58.9979 65.9615 57.8844 65.9615H6.05782C4.94431 65.9615 4.03854 65.0557 4.03854 63.9422V28.9422C4.03854 27.8287 4.94431 26.9229 6.05782 26.9229H57.8844C58.9979 26.9229 59.9036 27.8287 59.9036 28.9422V37.6922H52.5C49.16 37.6922 46.4422 40.41 46.4422 43.75V49.1344C46.4422 52.4749 49.16 55.1922 52.5 55.1922H59.9036V63.9422ZM65.9615 49.1344C65.9615 50.2479 65.0557 51.1536 63.9422 51.1536H52.5C51.3865 51.1536 50.4807 50.2479 50.4807 49.1344V43.75C50.4807 42.6365 51.3865 41.7307 52.5 41.7307H63.9422C65.0557 41.7307 65.9615 42.6365 65.9615 43.75V49.1344Z" fill="#252525"/>
<path d="M59.2308 44.4229H58.5578C57.4427 44.4229 56.5386 45.327 56.5386 46.4421C56.5386 47.5572 57.4427 48.4614 58.5578 48.4614H59.2308C60.3459 48.4614 61.25 47.5572 61.25 46.4421C61.25 45.327 60.3459 44.4229 59.2308 44.4229Z" fill="#252525"/>
<path d="M39.0386 10.7695H37.0193C36.6481 10.7695 36.3464 10.4678 36.3464 10.0966V8.75023C36.3464 7.63512 35.4422 6.73096 34.3271 6.73096C33.212 6.73096 32.3079 7.63512 32.3079 8.75023V10.0966C32.3079 12.6942 34.4211 14.808 37.0193 14.808H39.0386C40.1537 14.808 41.0579 13.9039 41.0579 12.7888C41.0579 11.6737 40.1537 10.7695 39.0386 10.7695Z" fill="#252525"/>
<path d="M22.2114 6.73096C21.0963 6.73096 20.1922 7.63512 20.1922 8.75023V10.0966C20.1922 10.4678 19.8904 10.7695 19.5193 10.7695H17.5C16.3849 10.7695 15.4807 11.6737 15.4807 12.7888C15.4807 13.9039 16.3849 14.808 17.5 14.808H19.5193C22.1169 14.808 24.2307 12.6942 24.2307 10.0966V8.75023C24.2307 7.63512 23.3266 6.73096 22.2114 6.73096Z" fill="#252525"/>
</g>
<defs>
<clipPath id="clip0">
<rect width="70" height="70" fill="white"/>
</clipPath>
</defs>
</svg>
