<svg width="70" height="70" viewBox="0 0 70 70" fill="none" xmlns="http://www.w3.org/2000/svg">
<g clip-path="url(#clip0)">
<path d="M69.3992 13.7803L56.2197 0.600815C55.4192 -0.200272 54.1203 -0.200272 53.3192 0.600815L0.600815 53.3192C-0.200272 54.1203 -0.200272 55.4186 0.600815 56.2197L13.7803 69.3992C14.1808 69.7997 14.7058 70 15.2303 70C15.7552 70 16.2802 69.7997 16.6802 69.3992L69.3992 16.6808C70.2003 15.8797 70.2003 14.5814 69.3992 13.7803ZM15.2303 65.0488L4.95125 54.7692L8.64052 51.0799L13.7803 56.2197C14.1808 56.6203 14.7058 56.8205 15.2303 56.8205C15.7552 56.8205 16.2802 56.6203 16.6802 56.2197C17.4813 55.4186 17.4813 54.1203 16.6802 53.3192L11.541 48.1795L15.2303 44.4902L18.1734 47.4334C18.574 47.8334 19.099 48.0337 19.6234 48.0337C20.1484 48.0337 20.6734 47.8339 21.0739 47.4334C21.8745 46.6323 21.8745 45.334 21.0739 44.5329L18.1307 41.5897L21.82 37.8999L26.9598 43.0397C27.3603 43.4402 27.8848 43.6405 28.4097 43.6405C28.9347 43.6405 29.4597 43.4402 29.8597 43.0397C30.6608 42.2392 30.6608 40.9409 29.8597 40.1398L24.7205 35L28.4103 31.3102L31.3529 34.2534C31.7535 34.6539 32.2784 34.8542 32.8034 34.8542C33.3279 34.8542 33.8528 34.6539 34.2534 34.2534C35.0539 33.4523 35.0539 32.154 34.2534 31.3529L31.3102 28.4103L35 24.7205L40.1398 29.8602C40.5403 30.2608 41.0648 30.461 41.5897 30.461C42.1142 30.461 42.6392 30.2608 43.0397 29.8602C43.8408 29.0591 43.8408 27.7608 43.0397 26.9598L37.8999 21.82L41.5897 18.1307L44.5329 21.0739C44.9335 21.4745 45.4579 21.6747 45.9829 21.6747C46.5073 21.6747 47.0323 21.4745 47.4329 21.0739C48.2339 20.2728 48.2339 18.9745 47.4329 18.1734L44.4902 15.2303L48.1795 11.541L53.3192 16.6808C53.7198 17.0808 54.2448 17.2816 54.7692 17.2816C55.2942 17.2816 55.8192 17.0813 56.2192 16.6808C57.0203 15.8797 57.0203 14.5814 56.2192 13.7803L51.0799 8.64052L54.7697 4.95125L65.0488 15.2308L15.2303 65.0488Z" fill="#252525"/>
</g>
<defs>
<clipPath id="clip0">
<rect width="70" height="70" fill="white"/>
</clipPath>
</defs>
</svg>
