<svg width="70" height="70" viewBox="0 0 70 70" fill="none" xmlns="http://www.w3.org/2000/svg">
<g clip-path="url(#clip0)">
<path d="M64.7997 51.918L56.1376 42.9554C56.1295 42.947 56.1213 42.9387 56.1131 42.9305C53.7088 40.5262 49.8175 40.5259 47.413 42.9305L43.4583 46.8851C41.6371 48.7064 38.689 48.7067 36.8675 46.8851C36.8667 46.8843 36.8659 46.8834 36.8651 46.8826L23.1121 33.455C21.2908 31.6336 21.2905 28.6855 23.1121 26.864L27.0667 22.9094C29.4655 20.5109 29.4655 16.608 27.0667 14.2094L18.3666 5.50929C15.9679 3.11084 12.0652 3.11084 9.66657 5.50929C9.66575 5.51011 6.76595 8.41004 6.76663 8.40922C6.76595 8.41004 6.50372 8.67213 6.50304 8.67295C-2.16601 17.3419 -2.16915 31.3737 6.5044 40.0472L30.2766 63.4942C38.9264 72.144 52.9346 72.1762 61.6191 63.5247C61.6666 63.4808 64.7401 60.6499 64.7859 60.6041C67.1797 58.21 67.1843 54.3176 64.7997 51.918ZM12.5666 8.40922C13.3662 7.60969 14.667 7.60969 15.4666 8.40922L24.1667 17.1093C24.9681 17.9109 24.9682 19.2078 24.1667 20.0094L22.7168 21.4593L11.1166 9.85926L12.5666 8.40922ZM33.1752 60.5929L9.40297 37.1459C2.70404 30.4469 2.38631 19.8832 8.27135 12.814L19.8308 24.3734C16.8031 27.8107 16.9291 33.0719 20.2147 36.3575L33.9701 49.7876C37.2577 53.0727 42.5021 53.2079 45.9493 50.1667L57.5078 61.7252C50.3689 67.6553 39.8688 67.2863 33.1752 60.5929ZM61.9101 57.6793L60.532 58.9493L48.8631 47.2803L50.313 45.8304C51.1118 45.0317 52.4012 45.0293 53.2028 45.8202C53.2188 45.8367 61.8695 54.7877 61.8858 54.8038C62.6772 55.5954 62.6853 56.878 61.9101 57.6793Z" fill="#E34040"/>
<path d="M35.1395 0.00292969C34.0071 0.00292969 33.0889 0.921131 33.0889 2.05357C33.0889 3.18601 34.0071 4.10421 35.1395 4.10421C52.1003 4.10421 65.8988 17.9028 65.8988 34.8635C65.8988 35.996 66.817 36.9142 67.9495 36.9142C69.0819 36.9142 70.0001 35.9961 70.0001 34.8635C70.0001 15.5959 54.4086 0.00292969 35.1395 0.00292969Z" fill="#E34040"/>
<path d="M35.1395 8.20508C34.0071 8.20508 33.0889 9.12328 33.0889 10.2557C33.0889 11.3882 34.0071 12.3064 35.1395 12.3064C47.5773 12.3064 57.6964 22.4253 57.6964 34.8633C57.6964 35.9957 58.6146 36.9139 59.7471 36.9139C60.8795 36.9139 61.7977 35.9958 61.7977 34.8633C61.7977 20.164 49.8388 8.20508 35.1395 8.20508Z" fill="#E34040"/>
<path d="M35.1395 16.4077C34.0071 16.4077 33.0889 17.3259 33.0889 18.4584C33.0889 19.5908 34.0071 20.509 35.1395 20.509C43.0545 20.509 49.4939 26.9483 49.4939 34.8633C49.4939 35.9958 50.4121 36.914 51.5445 36.914C52.6769 36.914 53.5951 35.9959 53.5951 34.8633C53.5951 24.6868 45.316 16.4077 35.1395 16.4077Z" fill="#E34040"/>
<path d="M35.1395 24.6104C34.0071 24.6104 33.0889 25.5286 33.0889 26.661C33.0889 27.7934 34.0071 28.7116 35.1395 28.7116C38.5316 28.7116 41.2914 31.4713 41.2914 34.8635C41.2914 35.996 42.2096 36.9142 43.3421 36.9142C44.4745 36.9142 45.3927 35.9961 45.3927 34.8635C45.3926 29.21 40.7931 24.6104 35.1395 24.6104Z" fill="#E34040"/>
</g>
<defs>
<clipPath id="clip0">
<rect width="70" height="70" fill="white"/>
</clipPath>
</defs>
</svg>
