<svg width="30" height="30" viewBox="0 0 30 30" fill="none" xmlns="http://www.w3.org/2000/svg">
<g clip-path="url(#clip0)">
<path d="M19.988 3.28734V0H18.2275V3.78163C17.0919 4.27945 16.1024 5.09483 15.3941 6.15725L14.9999 6.74858L14.6057 6.15725C13.8975 5.09489 12.908 4.27945 11.7724 3.78163V0H10.0118V3.28734C9.7221 3.24826 9.42831 3.22757 9.13159 3.22757V7.10067C9.13159 9.04528 10.708 10.6217 12.6526 10.6217H17.3472C19.2919 10.6217 20.8683 9.04528 20.8683 7.10067V3.22757C20.5716 3.22757 20.2778 3.24826 19.988 3.28734Z" fill="#252525"/>
<path d="M19.1078 12.3821H10.8922L0.974731 27.8745V27.9332C10.1218 30.6889 19.8782 30.6889 29.0253 27.9332V27.8745L19.1078 12.3821Z" fill="#252525"/>
</g>
<defs>
<clipPath id="clip0">
<rect width="30" height="30" fill="white"/>
</clipPath>
</defs>
</svg>
