<svg width="26" height="26" viewBox="0 0 26 26" fill="none" xmlns="http://www.w3.org/2000/svg">
<path d="M24.9941 19.0254L21.653 15.5684C21.6499 15.5652 21.6467 15.562 21.6435 15.5589C20.7162 14.6315 19.2152 14.6314 18.2878 15.5589L16.7624 17.0842C16.0599 17.7867 14.9228 17.7868 14.2202 17.0842C14.2199 17.0839 14.2196 17.0836 14.2193 17.0832L8.91459 11.904C8.21207 11.2015 8.21196 10.0644 8.91459 9.36179L10.4399 7.83645C11.3652 6.91128 11.3652 5.40587 10.4399 4.4807L7.08419 1.12496C6.15896 0.199843 4.65361 0.199843 3.72844 1.12496C3.72812 1.12528 2.60963 2.24382 2.60989 2.24351C2.60963 2.24382 2.50848 2.34491 2.50822 2.34523C-0.835555 5.68895 -0.836768 11.1012 2.50875 14.4467L11.678 23.4906C15.0144 26.8269 20.4175 26.8393 23.7673 23.5023C23.7856 23.4854 24.9711 22.3935 24.9887 22.3758C25.9121 21.4524 25.9139 19.951 24.9941 19.0254ZM4.84704 2.24351C5.15543 1.93512 5.6572 1.93512 5.96559 2.24351L9.32133 5.59925C9.63046 5.90843 9.63051 6.40867 9.32133 6.71785L8.76208 7.2771L4.28774 2.80281L4.84704 2.24351ZM12.796 22.3715L3.62677 13.3277C1.04289 10.7437 0.920339 6.66918 3.19029 3.9425L7.64892 8.40113C6.48112 9.72692 6.52968 11.7562 7.79699 13.0235L13.1026 18.2037C14.3707 19.4708 16.3936 19.523 17.7232 18.35L22.1815 22.8082C19.4279 25.0956 15.3779 24.9532 12.796 22.3715ZM23.8795 21.2477L23.348 21.7375L18.8471 17.2366L19.4063 16.6774C19.7145 16.3693 20.2118 16.3684 20.521 16.6734C20.5272 16.6798 23.8639 20.1323 23.8701 20.1386C24.1754 20.4439 24.1785 20.9386 23.8795 21.2477Z" fill="#252525"/>
</svg>
